<?xml version="1.0" encoding="UTF-8" standalone="yes"?>
<svg xmlns="http://www.w3.org/2000/svg" xmlns:xlink="http://www.w3.org/1999/xlink" width="800" height="600" viewBox="0 0 800 600" version="1.1">
	<!--Figure start-->
	<polygon points="20,200 138.91616293691106,200 138.91616293691106,380.05491920107266 20,380.05491920107266 "  style="stroke:#000000;fill:#ffff99;stroke-width:2;stroke-linecap:butt;stroke-linejoin:miter;"  />
	<text y="274.02439"  transform="rotate(0 79.45806 ,280.02439)"  font-family="Arial"  font-size="12"  fill=" #000000"  text-anchor="middle" >
		<tspan x="79.45806" dy="12">Server II</tspan>
	</text>
	<!--Figure end-->

	<!--Figure start-->
	<polygon points="20,40 137.9144069081426,40 137.9144069081426,181.07031538158165 20,181.07031538158165 "  style="stroke:#000000;fill:#ffff99;stroke-width:2;stroke-linecap:butt;stroke-linejoin:miter;"  />
	<text y="95.19796"  transform="rotate(0 78.9572 ,102.69796)"  font-family="Arial"  font-size="15"  fill=" #000000"  text-anchor="middle" >
		<tspan x="78.9572" dy="15">Server I</tspan>
	</text>
	<!--Figure end-->

	<!--Figure start-->
	<polygon points="40,40 110,40 110,85 40,85 "  style="stroke:#000000;fill:#ffffff;stroke-width:2;stroke-linecap:butt;stroke-linejoin:miter;"  />
	<text y="54"  transform="rotate(0 75 ,60)"  font-family="Arial"  font-size="12"  fill=" #000000"  text-anchor="middle" >
		<tspan x="75" dy="12">Consumer</tspan>
	</text>
	<!--Figure end-->

	<!--Figure start-->
	<polygon points="40,135 110,135 110,180 40,180 "  style="stroke:#000000;fill:#ffffff;stroke-width:2;stroke-linecap:butt;stroke-linejoin:miter;"  />
	<text y="149"  transform="rotate(0 75 ,155)"  font-family="Arial"  font-size="12"  fill=" #000000"  text-anchor="middle" >
		<tspan x="75" dy="12">Consumer</tspan>
	</text>
	<!--Figure end-->

	<!--Figure start-->
	<polygon points="40,200 110,200 110,245 40,245 "  style="stroke:#000000;fill:#ffffff;stroke-width:2;stroke-linecap:butt;stroke-linejoin:miter;"  />
	<text y="214"  transform="rotate(0 75 ,220)"  font-family="Arial"  font-size="12"  fill=" #000000"  text-anchor="middle" >
		<tspan x="75" dy="12">Consumer</tspan>
	</text>
	<!--Figure end-->

	<!--Figure start-->
	<polygon points="40,268.5 110,268.5 110,313.5 40,313.5 "  style="stroke:#000000;fill:#ffffff;stroke-width:2;stroke-linecap:butt;stroke-linejoin:miter;"  />
	<text y="282.5"  transform="rotate(0 75 ,288.5)"  font-family="Arial"  font-size="12"  fill=" #000000"  text-anchor="middle" >
		<tspan x="75" dy="12">Consumer</tspan>
	</text>
	<!--Figure end-->

	<!--Figure start-->
	<polygon points="40,335 110,335 110,380 40,380 "  style="stroke:#000000;fill:#ffffff;stroke-width:2;stroke-linecap:butt;stroke-linejoin:miter;"  />
	<text y="349"  transform="rotate(0 75 ,355)"  font-family="Arial"  font-size="12"  fill=" #000000"  text-anchor="middle" >
		<tspan x="75" dy="12">Consumer</tspan>
	</text>
	<!--Figure end-->

	<!--Figure start-->
	<polygon points="270,40.03051075550274 340,40.03051075550274 340,386.96978298676396 270,386.96978298676396 "  style="stroke:#000000;fill:#ffcc99;stroke-width:2;stroke-linecap:butt;stroke-linejoin:miter;"  />
	<text y="188.22582"  transform="rotate(0 305 ,194.22582)"  font-family="Arial"  font-size="12"  fill=" #000000"  text-anchor="middle" >
		<tspan x="305" dy="12">Queue</tspan>
	</text>
	<!--Figure end-->

	<!--Figure start-->
	<polygon points="20,400 138.99341667791916,400 138.99341667791916,500.9909651901067 20,500.9909651901067 "  style="stroke:#000000;fill:#c0c0c0;stroke-width:2;stroke-linecap:butt;stroke-linejoin:miter;"  />
	<text y="444.49551"  transform="rotate(0 79.49672 ,450.49551)"  font-family="Arial"  font-size="12"  fill=" #000000"  text-anchor="middle" >
		<tspan x="79.49672" dy="12">Celerybeat</tspan>
	</text>
	<!--Figure end-->

	<!--Figure start-->
	<polygon points="400,40 556.0634351373527,40 556.0634351373527,233.0491424143945 400,233.0491424143945 "  style="stroke:#000000;fill:#ff9900;stroke-width:2;stroke-linecap:butt;stroke-linejoin:miter;"  />
	<text y="119.79961"  transform="rotate(0 478.03172 ,125.79961)"  font-family="Arial"  font-size="12"  fill=" #000000"  text-anchor="middle" >
		<tspan x="478.03172" dy="12">Server A</tspan>
	</text>
	<!--Figure end-->

	<!--Figure start-->
	<polygon points="400,255 553.9389096586581,255 553.9389096586581,383.9328113847072 400,383.9328113847072 "  style="stroke:#000000;fill:#ff9900;stroke-width:2;stroke-linecap:butt;stroke-linejoin:miter;"  />
	<text y="306.30349"  transform="rotate(0 476.96946 ,312.30349)"  font-family="Arial"  font-size="12"  fill=" #000000"  text-anchor="middle" >
		<tspan x="476.96946" dy="12">Server B</tspan>
	</text>
	<!--Figure end-->

	<!--Figure start-->
	<polygon points="400,40 490.1000593741934,40 490.1000593741934,85 400,85 "  style="stroke:#000000;fill:#ffffff;stroke-width:2;stroke-linecap:butt;stroke-linejoin:miter;"  />
	<text y="54"  transform="rotate(0 445.05003 ,60)"  font-family="Arial"  font-size="12"  fill=" #000000"  text-anchor="middle" >
		<tspan x="445.05003" dy="12">Worker</tspan>
	</text>
	<!--Figure end-->

	<!--Figure start-->
	<polygon points="400,140 496.0837910105686,140 496.0837910105686,185 400,185 "  style="stroke:#000000;fill:#ffffff;stroke-width:2;stroke-linecap:butt;stroke-linejoin:miter;"  />
	<text y="154"  transform="rotate(0 448.0419 ,160)"  font-family="Arial"  font-size="12"  fill=" #000000"  text-anchor="middle" >
		<tspan x="448.0419" dy="12">Worker</tspan>
	</text>
	<!--Figure end-->

	<!--Figure start-->
	<polygon points="400,195 495.79202285055067,195 495.79202285055067,232.45273432914004 400,232.45273432914004 "  style="stroke:#000000;fill:#ffffff;stroke-width:2;stroke-linecap:butt;stroke-linejoin:miter;"  />
	<text y="205.64567"  transform="rotate(0 447.89604 ,211.64567)"  font-family="Arial"  font-size="12"  fill=" #000000"  text-anchor="middle" >
		<tspan x="447.89604" dy="12">Worker</tspan>
	</text>
	<!--Figure end-->

	<!--Figure start-->
	<polygon points="400,253.5 497.89668448704117,253.5 497.89668448704117,298.5 400,298.5 "  style="stroke:#000000;fill:#ffffff;stroke-width:2;stroke-linecap:butt;stroke-linejoin:miter;"  />
	<text y="267.5"  transform="rotate(0 448.94832 ,273.5)"  font-family="Arial"  font-size="12"  fill=" #000000"  text-anchor="middle" >
		<tspan x="448.94832" dy="12">Worker</tspan>
	</text>
	<!--Figure end-->

	<!--Figure start-->
	<polygon points="400,340 500.0812892396127,340 500.0812892396127,383.2108405303409 400,383.2108405303409 "  style="stroke:#000000;fill:#ffffff;stroke-width:2;stroke-linecap:butt;stroke-linejoin:miter;"  />
	<text y="353.20481"  transform="rotate(0 450.04065 ,359.20481)"  font-family="Arial"  font-size="12"  fill=" #000000"  text-anchor="middle" >
		<tspan x="450.04065" dy="12">Worker</tspan>
	</text>
	<!--Figure end-->
<polyline points="110,62.5 269,65 " style="stroke:#000000;fill:none;stroke-width:1;stroke-linecap:butt;stroke-linejoin:miter;" />
	<path d=" M269,65 L256.1291343488569,57.29670087623329 M269,65 L255.89331444029608,72.29484706070309"  style="stroke:#000000;fill:none;stroke-width:1;stroke-linecap:butt;stroke-linejoin:miter;"  />
	<polygon points="190,99.85692 190,99.85692 190,109.85692 190,109.85692 "  style="stroke:none;fill:#FFFFFF;stroke-width:none;stroke-linecap:butt;stroke-linejoin:miter;"  />
	<text y="99.85692"  transform="rotate(0 190 ,104.85692)"  font-family="Arial"  font-size="10"  text-anchor="middle" >
		<tspan x="190" dy="10"></tspan>
	</text><polyline points="110,157.5 268,159 " style="stroke:#000000;fill:none;stroke-width:1;stroke-linecap:butt;stroke-linejoin:miter;" />
	<path d=" M268,159 L255.08140363693033,151.37701711873345 M268,159 L254.93900499067442,166.3763411910223"  style="stroke:#000000;fill:none;stroke-width:1;stroke-linecap:butt;stroke-linejoin:miter;"  />
	<polygon points="190,141.95127 190,141.95127 190,151.95127 190,151.95127 "  style="stroke:none;fill:#FFFFFF;stroke-width:none;stroke-linecap:butt;stroke-linejoin:miter;"  />
	<text y="141.95127"  transform="rotate(0 190 ,146.95127)"  font-family="Arial"  font-size="10"  text-anchor="middle" >
		<tspan x="190" dy="10"></tspan>
	</text><polyline points="110,222.5 270,213.50015 " style="stroke:#000000;fill:none;stroke-width:1;stroke-linecap:butt;stroke-linejoin:miter;" />
	<path d=" M270,213.50015 L256.6089186473114,206.74153030322205 M270,213.50015 L257.45132297172813,221.71785678718348"  style="stroke:#000000;fill:none;stroke-width:1;stroke-linecap:butt;stroke-linejoin:miter;"  />
	<polygon points="190,213.00007 190,213.00007 190,223.00007 190,223.00007 "  style="stroke:none;fill:#FFFFFF;stroke-width:none;stroke-linecap:butt;stroke-linejoin:miter;"  />
	<text y="213.00007"  transform="rotate(0 190 ,218.00007)"  font-family="Arial"  font-size="10"  text-anchor="middle" >
		<tspan x="190" dy="10"></tspan>
	</text><polyline points="110,291 270,290.59776 " style="stroke:#000000;fill:none;stroke-width:1;stroke-linecap:butt;stroke-linejoin:miter;" />
	<path d=" M270,290.59776 L256.9908050534994,283.13044141539797 M270,290.59776 L257.0285149343327,298.1303940141526"  style="stroke:#000000;fill:none;stroke-width:1;stroke-linecap:butt;stroke-linejoin:miter;"  />
	<polygon points="190,285.79888 190,285.79888 190,295.79888 190,295.79888 "  style="stroke:none;fill:#FFFFFF;stroke-width:none;stroke-linecap:butt;stroke-linejoin:miter;"  />
	<text y="285.79888"  transform="rotate(0 190 ,290.79888)"  font-family="Arial"  font-size="10"  text-anchor="middle" >
		<tspan x="190" dy="10"></tspan>
	</text><polyline points="110,357.5 268,359 " style="stroke:#000000;fill:none;stroke-width:1;stroke-linecap:butt;stroke-linejoin:miter;" />
	<path d=" M268,359 L255.08140363693033,351.3770171187334 M268,359 L254.93900499067442,366.37634119102233"  style="stroke:#000000;fill:none;stroke-width:1;stroke-linecap:butt;stroke-linejoin:miter;"  />
	<polygon points="125,345 125,345 125,355 125,355 "  style="stroke:none;fill:#FFFFFF;stroke-width:none;stroke-linecap:butt;stroke-linejoin:miter;"  />
	<text y="345"  transform="rotate(0 125 ,350)"  font-family="Arial"  font-size="10"  text-anchor="middle" >
		<tspan x="125" dy="10"></tspan>
	</text><polyline points="138.99342,450.49548 269,380 " style="stroke:#000000;fill:none;stroke-width:1;stroke-linecap:butt;stroke-linejoin:miter;" />
	<path d=" M269,380 L254.00535782480569,379.5991184241148 M269,380 L261.15550528377713,392.78530025643323"  style="stroke:#000000;fill:none;stroke-width:1;stroke-linecap:butt;stroke-linejoin:miter;"  />
	<polygon points="203.99671,410.24774 203.99671,410.24774 203.99671,420.24774 203.99671,420.24774 "  style="stroke:none;fill:#FFFFFF;stroke-width:none;stroke-linecap:butt;stroke-linejoin:miter;"  />
	<text y="410.24774"  transform="rotate(0 203.99671 ,415.24774)"  font-family="Arial"  font-size="10"  text-anchor="middle" >
		<tspan x="203.99671" dy="10"></tspan>
	</text><polyline points="305,386.96978298676396 305,416.96978298676396 370,416.96978298676396 370,62.5 400,62.5 " style="stroke:#000000;fill:none;stroke-width:1;stroke-linecap:butt;stroke-linejoin:miter;" />
	<path d=" M400,62.5 L387.0096189432334,55 M400,62.5 L387.0096189432334,70"  style="stroke:#000000;fill:none;stroke-width:1;stroke-linecap:butt;stroke-linejoin:miter;"  />
	<polygon points="370,202.23489 370,202.23489 370,212.23489 370,212.23489 "  style="stroke:none;fill:#FFFFFF;stroke-width:none;stroke-linecap:butt;stroke-linejoin:miter;"  />
	<text y="202.23489"  transform="rotate(0 370 ,207.23489)"  font-family="Arial"  font-size="10"  text-anchor="middle" >
		<tspan x="370" dy="10"></tspan>
	</text><polyline points="305,386.96978298676396 305,416.96978298676396 370,416.96978298676396 370,162.5 400,162.5 " style="stroke:#000000;fill:none;stroke-width:1;stroke-linecap:butt;stroke-linejoin:miter;" />
	<path d=" M400,162.5 L387.0096189432334,155 M400,162.5 L387.0096189432334,170"  style="stroke:#000000;fill:none;stroke-width:1;stroke-linecap:butt;stroke-linejoin:miter;"  />
	<polygon points="370,252.23489 370,252.23489 370,262.23489 370,262.23489 "  style="stroke:none;fill:#FFFFFF;stroke-width:none;stroke-linecap:butt;stroke-linejoin:miter;"  />
	<text y="252.23489"  transform="rotate(0 370 ,257.23489)"  font-family="Arial"  font-size="10"  text-anchor="middle" >
		<tspan x="370" dy="10"></tspan>
	</text><polyline points="305,386.96978298676396 305,416.96978298676396 370,416.96978298676396 370,213.72637 400,213.72637 " style="stroke:#000000;fill:none;stroke-width:1;stroke-linecap:butt;stroke-linejoin:miter;" />
	<path d=" M400,213.72637 L387.0096189432334,206.22637 M400,213.72637 L387.0096189432334,221.22637"  style="stroke:#000000;fill:none;stroke-width:1;stroke-linecap:butt;stroke-linejoin:miter;"  />
	<polygon points="320,375 320,375 320,385 320,385 "  style="stroke:none;fill:#FFFFFF;stroke-width:none;stroke-linecap:butt;stroke-linejoin:miter;"  />
	<text y="375"  transform="rotate(0 320 ,380)"  font-family="Arial"  font-size="10"  text-anchor="middle" >
		<tspan x="320" dy="10"></tspan>
	</text><polyline points="305,386.96978298676396 305,416.96978298676396 370,416.96978298676396 370,276 400,276 " style="stroke:#000000;fill:none;stroke-width:1;stroke-linecap:butt;stroke-linejoin:miter;" />
	<path d=" M400,276 L387.0096189432334,268.5 M400,276 L387.0096189432334,283.5"  style="stroke:#000000;fill:none;stroke-width:1;stroke-linecap:butt;stroke-linejoin:miter;"  />
	<polygon points="319,375 319,375 319,385 319,385 "  style="stroke:none;fill:#FFFFFF;stroke-width:none;stroke-linecap:butt;stroke-linejoin:miter;"  />
	<text y="375"  transform="rotate(0 319 ,380)"  font-family="Arial"  font-size="10"  text-anchor="middle" >
		<tspan x="319" dy="10"></tspan>
	</text><polyline points="305,386.96978298676396 305,416.96978298676396 370,416.96978298676396 370,361.60542 400,361.60542 " style="stroke:#000000;fill:none;stroke-width:1;stroke-linecap:butt;stroke-linejoin:miter;" />
	<path d=" M400,361.60542 L387.0096189432334,354.10542 M400,361.60542 L387.0096189432334,369.10542"  style="stroke:#000000;fill:none;stroke-width:1;stroke-linecap:butt;stroke-linejoin:miter;"  />
	<polygon points="365.18218,411.96978 365.18218,411.96978 365.18218,421.96978 365.18218,421.96978 "  style="stroke:none;fill:#FFFFFF;stroke-width:none;stroke-linecap:butt;stroke-linejoin:miter;"  />
	<text y="411.96978"  transform="rotate(0 365.18218 ,416.96978)"  font-family="Arial"  font-size="10"  text-anchor="middle" >
		<tspan x="365.18218" dy="10"></tspan>
	</text>
</svg>